<?xml version="1.0" encoding="utf-8"?>
<svg xmlns="http://www.w3.org/2000/svg" id="Lager_1" version="1.1" viewBox="0 0 325.98425 70.86614">
  
  <defs>
    <style>
      .st0 {
        fill: #5e9a69;
      }

      .st1 {
        fill: #083d3e;
      }
    </style>
  </defs>
  <circle class="st1" cx="111.55671" cy="8.58848" r="5.01203"/>
  <path class="st1" d="M9.80075,54.12245h-2.3741c-.40821,0-.73913-.33092-.73913-.73913v-18.00312c0-.40821.33092-.73913.73913-.73913h2.99277c.31125,0,.5896.20045.69527.49322,4.28883,11.88341,8.27064,16.26025,14.6999,16.26025,5.20682,0,8.18239-2.69177,8.18239-7.33141,0-4.46336-2.79842-6.41124-9.03249-8.82008l-6.12787-2.33833c-6.48175-2.47935-11.51184-6.12743-11.51184-14.59319.0357-9.17351,6.16357-14.69983,15.6914-14.69983,8.55286,0,11.13343,4.50458,14.87672,1.12063.13698-.12383.31509-.19957.49975-.19957h2.40991c.40821,0,.73913.33092.73913.73913v17.37088c0,.40821-.33092.73913-.73913.73913h-3.02087c-.31498-.00001-.59543-.20534-.6982-.50308-3.7404-10.83752-7.74172-15.61815-13.32342-15.61815-4.64008,0-7.4028,2.54986-7.4028,7.01323,0,4.25007,2.4441,6.37598,8.96154,8.85533l6.16312,2.30219c6.26933,2.3727,11.79521,5.91501,11.79521,14.38077,0,9.35156-6.72986,15.23131-17.00203,15.23131-9.39609,0-12.02238-4.68449-15.97458-1.11957-.13717.12373-.31505.19852-.49978.19852Z"/>
  <path class="st0" d="M73.90355,55.19054c9.93027,0,18.90604-4.06335,25.37437-10.61006.27828-.28165.43052-.66527.43052-1.0612v-1.49329c-.00001-.68831-.77396-1.0955-1.33679-.69928-6.92248,4.8733-15.35892,7.73996-24.4681,7.73996s-17.54562-2.86665-24.46806-7.73995c-.56283-.39623-1.33678.01097-1.33678.69928v1.49329c0,.39593.15224.77955.43052,1.0612,6.46829,6.5467,15.44406,10.61006,25.37433,10.61006Z"/>
  <path class="st1" d="M137.43173,50.91519c-2.50229-.24334-2.83412-.84182-2.83412-3.52307V4.84705c0-.40822-.33103-.73909-.73909-.73909h-3.20143c-.23904,0-.45819.12119-.60015.31368-1.66708,2.2615-4.24926,3.02788-8.96531,3.32986-.39055.02499-.69771.34615-.69771.73741v1.80236c0,.38379.29856.7024.681.73566,2.49417.21628,2.82616.81707,2.82616,3.49458v32.93911c0,1.93668-1.57,3.50668-3.50668,3.50668s-3.50668-1.57-3.50668-3.50668v-30.21592c0-.40822-.33087-.73916-.73924-.73916h-3.20111c-.23904,0-.45819.12119-.60015.31368-1.66724,2.26158-4.24926,3.02788-8.9661,3.32915-.39055.02499-.69771.34615-.69771.73749v1.80299c0,.38387.29856.70248.681.73566,2.49481.2162,2.826.81619,2.826,3.49466v20.47293c0,2.68125-.3319,3.27973-2.83412,3.52307-.37893.03684-.67288.35418-.67288.73495v1.73321c0,.40814.33087.73909.73909.73909h33.94302c.40806,0,.73909-.33095.73909-.73909v-1.73321c0-.38076-.29411-.6981-.67288-.73495Z"/>
  <path class="st1" d="M90.00279,16.32842c-4.23009,0-7.70796,1.82042-9.93778,6.32034-.68927,1.35547-1.11666,1.71657-1.64727,1.71657-.57556,0-.71617-.50418-.7507-.76964-.00119-.01416-.01767-.15175-.01767-.15175-.45819-5.00641-3.04292-7.11553-7.80146-7.11553-4.01913,0-7.14831,1.68355-9.39095,6.15928-.01997.03724-.0378.06732-.05928.11021-.70582,1.40106-.90492,1.76742-1.37234,1.76742-.53219,0-.56227-.53872-.54683-.79526.38578-2.53746.58344-4.37579.67574-6.28413.02053-.42397-.31368-.7803-.73805-.7803l-3.13021-.00008c-.24159,0-.46264.12358-.60429.31925-1.63461,2.25665-4.18258,3.02215-8.85979,3.32334-.39047.02515-.69739.34623-.69739.73741v1.80339c0,.38379.29856.70248.681.73566,2.49409.21612,2.8256.81627,2.8256,3.49458v6.35225c0,.23045.1075.44768.29061.5875l1.97097,1.50491c2.32102,1.7722,4.80103,3.24838,7.4004,4.42496.48524.21962,1.03502-.14602,1.03502-.67869v-5.93633c0-7.15507,2.30216-11.56761,5.84449-11.56761,2.26691,0,3.40044,1.77069,3.40044,5.13588v15.36737c0,.37336.27724.69341.64781.73901,1.54167.18978,3.10339.29076,4.68199.29076,1.59148,0,3.16594-.10257,4.72002-.29546.37026-.04599.64718-.36588.64718-.73909l-.00008-9.03654c0-6.90752,2.08978-11.42668,5.6321-11.42668,2.37274,0,3.5767,1.66493,3.5767,5.0653v12.40283c0,.53267.54986.89831,1.0351.67861,2.59889-1.1765,5.07851-2.65253,7.39913-4.42441l1.97264-1.5061c.18318-.13981.29061-.35705.29061-.5875v-6.9177c0-6.83606-3.01085-10.02404-9.17347-10.02404Z"/>
  <g>
    <g>
      <path class="st0" d="M202.07838,32.29641c0-10.38125-5.66916-16.33313-15.6607-16.33313-10.91231,0-16.68717,6.83763-16.68717,19.34441v.35468c0,12.47112,5.81052,19.34505,16.51015,19.34505,8.87183,0,14.40673-4.70637,15.66388-12.88721.06316-.41103-.23838-.79215-.65161-.83881l-2.96831-.33516c-.37984-.04289-.72238.21507-.80511.58826-1.09062,4.91967-3.78232,7.1307-8.26259,7.1307-5.81052,0-8.68044-4.39307-8.85746-13.39253h20.85255c.37327,0,.69358-.2795.73517-.65045.08726-.77834.1312-1.51912.1312-2.32581ZM191.52011,28.78909c0,2.65724-.63804,3.40098-2.8349,3.40098h-8.32576v-.21268c0-8.75112,1.91285-12.68381,5.8812-12.68381,3.4723,0,5.27945,2.97626,5.27945,9.03448v.46102Z"/>
      <path class="st0" d="M203.80385,20.84058v1.7778c0,.37121.25939.71129.62716.76171,2.54414.34881,2.88016,4.19906,2.88016,6.89709l.00005,22.9268c0,.36676.26799.6866.63203.7311,3.43953.4205,5.42678,2.10991,5.42678,4.65034,0,1.94915-.99209,3.4723-2.33822,3.4723-2.12617,0-3.36596-4.07469-7.40499-4.07469-2.58656,0-4.14537,1.59447-4.14537,4.21669,0,3.25962,2.4089,5.20814,6.83763,5.13745,6.87392-.07132,11.6567-5.03111,11.6567-13.42819V17.19846c0-.40821-.33092-.73913-.73913-.73913l-3.1981.00002c-.24139,0-.46216.12348-.60393.31886-1.63834,2.25793-4.21914,3.0235-8.93306,3.32494-.39055.02497-.69771.34609-.69771.73743Z"/>
      <path class="st0" d="M243.61873,31.76471l-5.31448-1.80651c-5.20877-1.77149-7.36997-3.11826-7.36997-6.09388,0-2.97626,2.16119-4.71273,5.42082-4.71273,4.33969,0,7.76103,3.26622,10.76368,10.86456.11145.28204.38348.4731.68674.4731h2.62043c.40821,0,.73913-.33091.73913-.73912v-12.12695c0-.40821-.33092-.73913-.73913-.73913h-2.32232c-.19508,0-.37926.08321-.52081.21744-2.74746,2.60531-5.27714-.96119-12.11347-.96119-7.68835,0-12.4361,4.46439-12.4361,11.9044,0,5.98754,3.2246,8.92878,8.39708,10.73529l5.20814,1.80715c5.24379,1.80715,7.65333,3.15328,7.65333,6.44856,0,3.11762-2.37388,4.81843-6.0232,4.81843-5.07732,0-8.51562-3.65221-11.68998-12.12824-.10812-.28871-.3837-.48488-.69199-.48488h-2.6453c-.40821,0-.73913.33091-.73913.73913v13.36673c0,.40821.33092.73913.73913.73913h2.32808c.19167-.00001.37333-.08073.51377-.21116,2.89182-2.68552,5.60236,1.02623,13.0355,1.02623,8.22005,0,13.35751-4.50005,13.35751-11.94006,0-6.34222-3.4723-9.3535-8.85746-11.19631Z"/>
      <path class="st0" d="M288.3849,32.29641c0-10.38125-5.66916-16.33313-15.6607-16.33313-10.91231,0-16.68717,6.83763-16.68717,19.34441v.35468c0,12.47112,5.81052,19.34505,16.51015,19.34505,8.87183,0,14.40673-4.70637,15.66388-12.88721.06316-.41103-.23838-.79215-.65161-.83881l-2.96831-.33516c-.37984-.04289-.72238.21507-.80511.58826-1.09062,4.91967-3.78232,7.1307-8.26259,7.1307-5.81052,0-8.68044-4.39307-8.85746-13.39253h20.85255c.37327,0,.69358-.2795.73517-.65045.08726-.77834.1312-1.51912.1312-2.32581ZM277.82663,28.78909c0,2.65724-.63804,3.40098-2.8349,3.40098h-8.32576v-.21268c0-8.75112,1.91285-12.68381,5.8812-12.68381,3.4723,0,5.27945,2.97626,5.27945,9.03448v.46102Z"/>
      <path class="st0" d="M212.64347,13.55391c2.76883,0,5.01344-2.24461,5.01344-5.01344s-2.24461-5.01336-5.01344-5.01336-5.01344,2.24453-5.01344,5.01336,2.24461,5.01344,5.01344,5.01344Z"/>
    </g>
    <path class="st0" d="M163.36693,16.56554c-3.75229,0-6.83675,3.50235-9.16099,10.49936-.00477.01287-.39705,1.4128-1.01058,1.34896-.46206-.04808-.40066-.44093-.33345-.91558.54977-3.88225.83029-7.31681.89286-10.2911.00869-.41321-.3277-.74796-.741-.74795l-2.93688.00005c-.24166,0-.46285.12367-.60449.31947-1.63085,2.25452-4.14203,3.02099-8.72053,3.32293-.38986.02571-.69752.34631-.69752.73701v1.80725c0,.38333.29761.70138.67941.73553,2.42722.21707,2.7571.8201,2.7571,3.4941v20.69107c0,2.51057-.32986,3.10114-2.75685,3.31726-.38192.03401-.67968.35214-.67968.73557v1.76308c-.00001.40821.33091.73913.73912.73913h19.21281c.40821,0,.73913-.33092.73913-.73913v-1.73795c0-.39606-.31446-.72252-.7102-.73836-5.42279-.21703-5.87971-.64236-5.87971-3.90634v-10.55832c0-6.20006,2.23207-11.16035,4.35827-11.16035,2.23165,0-.31928,6.97937,4.8183,6.97937,3.33025,0,5.13758-2.90468,5.13758-8.00655,0-4.925-1.77162-7.68852-5.1027-7.68852Z"/>
    <path class="st0" d="M314.19402,16.56554c-3.75229,0-6.83675,3.50235-9.16099,10.49936-.00477.01287-.39705,1.4128-1.01058,1.34896-.46206-.04808-.40066-.44093-.33345-.91558.54976-3.88224.83029-7.31678.89287-10.29109.00869-.41321-.32769-.74796-.74099-.74795l-2.93685.00003c-.24166,0-.46285.12367-.60449.31947-1.63086,2.25454-4.14206,3.02101-8.72059,3.32296-.38985.02571-.69751.3463-.69751.737v1.80725c0,.38333.29762.70138.67942.73552,2.42722.21707,2.75711.82009,2.75711,3.4941v20.69107c0,2.51057-.32986,3.10114-2.75685,3.31727-.38192.03401-.67968.35214-.67968.73557v1.76308c0,.40821.33091.73913.73912.73913h19.21281c.40821,0,.73913-.33092.73913-.73913v-1.73795c0-.39606-.31445-.72252-.7102-.73836-5.42279-.21703-5.87972-.64236-5.87972-3.90634v-10.55832c0-6.20006,2.23207-11.16035,4.35827-11.16035,2.23165,0-.31928,6.97937,4.8183,6.97937,3.33025,0,5.13758-2.90468,5.13758-8.00655,0-4.925-1.77162-7.68852-5.1027-7.68852Z"/>
  </g>
</svg>